HIERARCHY
ROOT Hip
{
	OFFSET	0.0000	0.0000	0.0000
	CHANNELS 6 Xposition Yposition Zposition Xrotation Yrotation Zrotation
	JOINT LowerSpine
	{
		OFFSET	0.0000	8.3453	-5.1292
		CHANNELS 3 Xrotation Yrotation Zrotation
		JOINT MiddleSpine
		{
			OFFSET	10.8569	0.0000	0.0000
			CHANNELS 3 Xrotation Yrotation Zrotation
			JOINT Chest
			{
				OFFSET	15.2984	0.0000	0.0000
				CHANNELS 3 Xrotation Yrotation Zrotation
				JOINT Neck
				{
					OFFSET	25.6618	-0.5986	0.0000
					CHANNELS 3 Xrotation Yrotation Zrotation
					JOINT Head
					{
						OFFSET	8.8829	0.0000	0.0000
						CHANNELS 3 Xrotation Yrotation Zrotation
						End Site
						{
							OFFSET	19.7399	0.0000	0.0000
						}
					}
				}
				JOINT RClavicle
				{
					OFFSET	23.6878	0.0000	3.1584
					CHANNELS 3 Xrotation Yrotation Zrotation
					JOINT RShoulder
					{
						OFFSET	-15.5945	-3.9480	0.9870
						CHANNELS 3 Xrotation Yrotation Zrotation
						JOINT RForearm
						{
							OFFSET	-31.3370	0.0000	0.1974
							CHANNELS 3 Xrotation Yrotation Zrotation
							JOINT RHand
							{
								OFFSET	-26.4021	0.0000	0.0000
								CHANNELS 3 Xrotation Yrotation Zrotation
								End Site
								{
									OFFSET	-15.7919	-0.9870	0.0000
								}
							}
						}
					}
				}
				JOINT LClavicle
				{
					OFFSET	23.6878	0.0000	-3.1584
					CHANNELS 3 Xrotation Yrotation Zrotation
					JOINT LShoulder
					{
						OFFSET	-15.5945	-3.9480	-0.9870
						CHANNELS 3 Xrotation Yrotation Zrotation
						JOINT LForearm
						{
							OFFSET	-31.3370	0.0000	-0.1974
							CHANNELS 3 Xrotation Yrotation Zrotation
							JOINT LHand
							{
								OFFSET	-26.4021	0.0000	0.0000
								CHANNELS 3 Xrotation Yrotation Zrotation
								End Site
								{
									OFFSET	-15.7919	-0.9870	0.0000
								}
							}
						}
					}
				}
			}
		}
	}
	JOINT RThigh
	{
		OFFSET	-8.8829	0.4481	0.0000
		CHANNELS 3 Xrotation Yrotation Zrotation
		JOINT RShin
		{
			OFFSET	43.1316	0.0000	-0.4935
			CHANNELS 3 Xrotation Yrotation Zrotation
			JOINT RFoot
			{
				OFFSET	0.0000	-44.7256	-0.4047
				CHANNELS 3 Xrotation Yrotation Zrotation
				JOINT RToe
				{
					OFFSET	0.0000	-3.9332	12.1953
					CHANNELS 3 Xrotation Yrotation Zrotation
					End Site
					{
						OFFSET	6.7725	0.0000	0.0000
					}
				}
			}
		}
	}
	JOINT LThigh
	{
		OFFSET	8.8829	0.4481	0.0000
		CHANNELS 3 Xrotation Yrotation Zrotation
		JOINT LShin
		{
			OFFSET	43.1316	0.0000	0.4935
			CHANNELS 3 Xrotation Yrotation Zrotation
			JOINT LFoot
			{
				OFFSET	0.0000	-44.7256	0.4047
				CHANNELS 3 Xrotation Yrotation Zrotation
				JOINT LToe
				{
					OFFSET	0.0000	-3.9332	-12.1953
					CHANNELS 3 Xrotation Yrotation Zrotation
					End Site
					{
						OFFSET	6.7725	0.0000	0.0000
					}
				}
			}
		}
	}
}
MOTION
Frames:	7
Frame Time: 0.0169491000
	7.3851	92.6811	-0.5024	-4.499145	-0.225548	0.631201	-89.999990	-90.000000	0.000000	-0.054837	0.008928	-0.170581	-0.182314	0.029191	-0.568673	0.000000	0.000000	0.000000	0.000000	0.000000	0.000000	90.019850	-0.662075	-81.094460	13.312380	26.804180	71.517630	2.002080	20.991580	-6.280816	0.000000	0.000000	0.000000	-90.005310	0.498089	-83.305930	-27.744290	-50.357110	56.312890	-2.113627	-21.931730	-6.321631	0.000000	0.000000	0.000000	-139.069800	88.341320	54.092960	89.902650	10.805200	89.998250	-9.622696	-0.329869	-0.150903	178.796200	90.000000	0.000000	177.639300	89.368780	98.164720	-89.925800	-8.257600	89.996930	8.137075	0.033661	0.003592	180.947400	-90.000000	0.000000
	7.3625	92.7093	-0.4016	-4.680483	-0.079152	0.470421	-89.999990	-90.000000	0.000000	-0.070466	-0.041484	-0.198324	-0.234413	-0.141358	-0.660991	0.000000	0.000000	0.000000	0.000000	0.000000	0.000000	90.014340	-0.607845	-81.826710	13.269150	26.721200	72.182760	2.031457	21.240370	-6.291399	0.000000	0.000000	0.000000	-90.003020	0.462823	-83.780640	-27.549110	-51.273590	56.626170	-2.045605	-21.359880	-6.296540	0.000000	0.000000	0.000000	-133.377400	88.217030	48.840900	89.906460	10.386470	89.997970	-9.292173	-0.514073	-0.233293	178.584000	90.000000	0.000000	-163.730300	89.323660	79.925310	-89.928870	-7.916722	89.996840	7.950418	-0.132292	0.121152	181.094900	-90.000000	0.000000
	7.3189	92.7398	-0.3249	-4.781750	0.216945	0.261132	-89.999990	-90.000000	0.000000	-0.081964	-0.087330	-0.215687	-0.273910	-0.296621	-0.719009	0.000000	0.000000	0.000000	0.000000	0.000000	0.000000	90.008980	-0.546996	-82.647130	13.642920	26.015950	72.575680	2.163639	22.349250	-6.340479	0.000000	0.000000	0.000000	-90.001310	0.432922	-84.182940	-27.435920	-52.081940	56.754560	-1.999511	-20.969790	-6.279897	0.000000	0.000000	0.000000	-126.457600	88.000490	42.359870	89.911760	9.803737	89.997630	-8.819679	-0.829379	-0.380442	178.225400	90.000000	0.000000	-144.555300	89.189340	60.982360	-89.931090	-7.670770	89.996800	7.755606	-0.219487	0.178312	181.355700	-90.000000	0.000000
	7.2437	92.7819	-0.2744	-4.805786	0.569493	-0.022245	-89.999990	-90.000000	0.000000	-0.089264	-0.124729	-0.223314	-0.301139	-0.414592	-0.745582	0.000000	0.000000	0.000000	0.000000	0.000000	0.000000	90.004100	-0.480017	-83.549160	14.470690	24.551900	72.261350	2.360307	23.966680	-6.417830	0.000000	0.000000	0.000000	-90.000010	0.407378	-84.526440	-27.452450	-52.666390	56.743240	-1.988900	-20.879690	-6.276108	0.000000	0.000000	0.000000	-119.684400	87.691470	35.962690	89.917470	9.174057	89.997340	-8.254102	-1.082443	-0.490815	177.877900	90.000000	0.000000	-127.413400	88.913370	43.874490	-89.931420	-7.635078	89.996790	7.738968	-0.483931	0.288789	181.431700	-90.000000	0.000000
	7.1792	92.8418	-0.2684	-4.748519	0.785071	-0.276884	-89.999990	-90.000000	0.000000	-0.094521	-0.149618	-0.224542	-0.322028	-0.481306	-0.751515	0.000000	0.000000	0.000000	0.000000	0.000000	0.000000	90.000010	-0.407372	-84.526460	15.283300	22.912710	71.366570	2.507873	25.154180	-6.479169	0.000000	0.000000	0.000000	-89.998900	0.382678	-84.858490	-27.632570	-53.065050	56.460210	-1.976163	-20.771410	-6.271580	0.000000	0.000000	0.000000	-115.530100	87.439900	31.939160	89.920980	8.785983	89.997190	-7.721225	-1.171527	-0.516131	177.588300	90.000000	0.000000	-118.586200	88.616570	34.917120	-89.930440	-7.742191	89.996800	7.765738	-0.869555	0.448494	181.390800	-90.000000	0.000000
	7.1400	92.9145	-0.3082	-4.611468	0.835901	-0.413586	-89.999990	-90.000000	0.000000	-0.114270	-0.157142	-0.218870	-0.393274	-0.514264	-0.730357	0.000000	0.000000	0.000000	0.000000	0.000000	0.000000	89.996990	-0.329520	-85.572850	15.727620	21.704000	70.509990	2.577383	25.705660	-6.509017	0.000000	0.000000	0.000000	-89.997790	0.353854	-85.245900	-28.218220	-53.139230	55.282680	-1.941117	-20.472650	-6.259236	0.000000	0.000000	0.000000	-113.909400	87.320550	30.179580	89.922030	8.670113	89.997150	-7.222880	-1.166722	-0.494128	177.179000	90.000000	0.000000	-115.869100	88.447930	32.016040	-89.930360	-7.751891	89.996810	7.568540	-1.042054	0.505069	181.502800	-90.000000	0.000000
	7.1134	92.9908	-0.3417	-4.465542	0.833304	-0.450211	-89.999990	-90.000000	0.000000	-0.124758	-0.153958	-0.216508	-0.448209	-0.488863	-0.718842	0.000000	0.000000	0.000000	0.000000	0.000000	0.000000	89.995350	-0.246584	-86.687040	15.886480	21.024070	70.145200	2.614516	25.998180	-6.525209	0.000000	0.000000	0.000000	-89.996620	0.316162	-85.752400	-29.310420	-52.642430	53.154080	-1.941281	-20.474060	-6.259294	0.000000	0.000000	0.000000	-113.541000	87.292530	29.661670	89.923000	8.562792	89.997110	-6.778624	-1.063230	-0.427619	176.835600	90.000000	0.000000	-115.753200	88.394830	31.789810	-89.931760	-7.596602	89.996780	7.203780	-1.012854	0.466029	181.703100	-90.000000	0.000000
